HIERARCHY
ROOT Hips
{
    OFFSET 13.709589004516602 83.16943359375 -17.800140380859375
    CHANNELS 6 Xposition Yposition Zposition Zrotation Xrotation Yrotation
    JOINT RightUpLeg
    {
        OFFSET -13.709589004516602 0.0 0.0
        CHANNELS 3 Zrotation Xrotation Yrotation
        JOINT RightLeg
        {
            OFFSET 0.0 -38.66908264160156 0.0
            CHANNELS 3 Zrotation Xrotation Yrotation
            JOINT RightFoot
            {
                OFFSET 0.0 -44.50035095214844 0.0
                CHANNELS 3 Zrotation Xrotation Yrotation
                End Site
                {
                    OFFSET 0.0 0.0 17.800140380859375
                }
            }
        }
    }
    JOINT LeftUpLeg
    {
        OFFSET 13.709589004516602 0.0 0.0
        CHANNELS 3 Zrotation Xrotation Yrotation
        JOINT LeftLeg
        {
            OFFSET 0.0 -38.66908264160156 0.0
            CHANNELS 3 Zrotation Xrotation Yrotation
            JOINT LeftFoot
            {
                OFFSET 0.0 -44.50035095214844 0.0
                CHANNELS 3 Zrotation Xrotation Yrotation
                End Site
                {
                    OFFSET 0.0 0.0 17.800140380859375
                }
            }
        }
    }
    JOINT Spine
    {
        OFFSET 0.0 22.546960830688477 0.0
        CHANNELS 3 Zrotation Xrotation Yrotation
        JOINT Spine3
        {
            OFFSET 0.0 25.482175827026367 0.0
            CHANNELS 3 Zrotation Xrotation Yrotation
            JOINT Neck
            {
                OFFSET 0.0 10.432720184326172 0.0
                CHANNELS 3 Zrotation Xrotation Yrotation
                End Site
                {
                    OFFSET 0.0 4.173088550567627 0.0
                }
            }
            JOINT LeftArm
            {
                OFFSET 14.628153800964355 0.0 0.0
                CHANNELS 3 Zrotation Xrotation Yrotation
                JOINT LeftForeArm
                {
                    OFFSET 26.71859359741211 0.0 0.0
                    CHANNELS 3 Zrotation Xrotation Yrotation
                    JOINT LeftHand
                    {
                        OFFSET 19.403804779052734 0.0 0.0
                        CHANNELS 3 Zrotation Xrotation Yrotation
                        End Site
                        {
                            OFFSET 7.76152229309082 0.0 0.0
                        }
                    }
                }
            }
            JOINT RightArm
            {
                OFFSET -14.628153800964355 0.0 0.0
                CHANNELS 3 Zrotation Xrotation Yrotation
                JOINT RightForeArm
                {
                    OFFSET -26.71859359741211 0.0 0.0
                    CHANNELS 3 Zrotation Xrotation Yrotation
                    JOINT RightHand
                    {
                        OFFSET -19.403804779052734 0.0 0.0
                        CHANNELS 3 Zrotation Xrotation Yrotation
                        End Site
                        {
                            OFFSET -7.76152229309082 0.0 0.0
                        }
                    }
                }
            }
        }
    }
}
MOTION
Frames: 4
Frame Time: 0.03333333333333333
0.00010174462659051642 55.48976135253906 -0.0006778365932404995 10.082097062535473 -2.2456776545975217 72.6993670756968 12.751414260908286 -59.720983261555176 8.044715201522944 132.91684175290953 72.05397925325516 -139.00922626385318 -3.975693351829397e-15 -7.951386703658797e-16 1.232464939067113e-14 -5.608113298738195 -53.750327035377055 -7.3088161276728325 160.77368121011216 84.73614354914436 -155.53396634683773 4.7708320221952736e-15 4.965644585306429e-32 1.1927080055488184e-15 6.110486548413604 14.930253556908752 -0.687787978642852 4.911159682891123e-07 4.893546611664683e-07 4.175824237402485 -2.9586151207158973 -9.355020151633376 -179.86739126370898 104.7250377247645 -8.336241758477437 -162.38909577349716 -3.07864675273699e-07 3.116401542186888e-06 47.63817906678277 3.975693351829396e-15 0.0 0.0 -118.96622979130127 0.09361638169407116 156.80367399844147 1.3197205592406234e-06 7.784125300906365e-07 -76.30907004176072 4.4139062980501586e-32 6.3611093629270335e-15 -7.951386703658792e-16
0.00012365567090455443 55.48977279663086 -0.0006690550362691283 10.067635680980748 -2.253082920879014 72.48797636112948 13.123718033119928 -59.65083737564341 8.399087990256392 132.48163368683717 72.09021155419272 -138.78655193103964 4.770832022195275e-15 3.975693351829396e-15 1.5902773407317582e-15 -5.494880612502401 -53.52113576767489 -7.161454081317927 159.88968129998088 84.80970713575525 -154.71204032477064 1.5902773407317584e-15 1.5902773407317584e-15 -1.5902773407317584e-15 6.112199753944648 14.917583076764451 -0.6985292042996085 8.375475580304901e-08 -1.1702076731179398e-07 4.239008545095461 -3.025419053886164 -9.626025863527014 -179.60822628467994 104.69925371605433 -8.03613964286539 -162.48689693518165 1.5332744928126144e-06 7.718769766095993e-07 47.607338715653896 -2.3854160110976376e-15 3.310429723537619e-32 -1.5902773407317584e-15 -118.89766515119132 0.32836230236552766 156.63991223006832 -1.2003266692004423e-06 -2.7756399357249135e-06 -76.18481939425594 0.0 0.0 0.0
0.00012578570749610662 55.48977279663086 -0.0006666305125690997 10.05313539979915 -2.2537374899456437 72.4230184683901 13.404330815451042 -59.94475834293437 8.636545582981412 132.96841559207144 71.86085199276702 -139.3847824172777 2.385416011097637e-15 3.1805546814635164e-15 -2.385416011097637e-15 -5.419333743777959 -53.4956785672555 -7.127664255833166 160.91082647250684 84.84944798607278 -155.74880202746277 3.1805546814635164e-15 3.310429723537619e-32 1.1927080055488186e-15 5.997544450268815 14.96902414734248 -0.6617101300430668 -5.430905796223336e-07 -2.470025110624707e-08 4.3169436303897095 -3.0601255480072354 -10.010846602253071 -179.60477473901966 104.66859007189602 -8.04160214464 -162.45494784275317 -2.3043591369456677e-06 3.392557007015077e-06 47.687701587319616 -2.3854160110976384e-15 0.0 0.0 -118.96098049555552 0.2172505045915694 156.33620939202282 -4.289989502889253e-07 -5.340551236739488e-07 -76.11212468331492 4.4139062980501586e-32 -6.3611093629270335e-15 7.951386703658792e-16
0.0001304611942032352 55.48977279663086 -0.000666400243062526 10.016766372693969 -2.3222631929454307 72.35979748350742 13.456953454599574 -59.950547708285775 8.687226350504242 132.7265549880813 71.8488825486983 -139.17385426804566 -7.951386703658792e-16 1.9310840053969444e-32 -2.782985346280577e-15 -5.3437933359321566 -53.421761180949595 -7.055718631164797 160.51710833264173 84.92067269867363 -155.39202020530152 0.0 0.0 0.0 6.059966301378912 15.003633097489265 -0.6806713594985564 -1.375440732117335e-07 -1.978886523594825e-07 4.223030728392424 -2.9835724254599367 -10.358735171687034 -179.58823152050982 104.47480525454888 -7.790091299193191 -162.37215225028288 1.0326899135525963e-06 -1.994554217343821e-07 47.38395907537367 3.1805546814635168e-15 0.0 0.0 -118.88913296690986 0.22083012109203567 156.03947136031925 -4.879067527087952e-06 -1.0229305849140849e-06 -75.97228707134767 4.4139062980501586e-32 6.361109362927032e-15 -7.95138670365879e-16
